<svg width="1440" height="1238" viewBox="0 0 1440 1238" fill="none" xmlns="http://www.w3.org/2000/svg">
<g clip-path="url(#clip0)">
<g filter="url(#filter0_f)">
<path d="M64.5829 743.629C-25.2574 718.273 -31.6367 827.26 -103.641 842.212C-359.437 895.328 -383.701 154.175 -120.504 42.4381C128.504 -63.2746 384.972 544.532 384.972 544.532C384.972 544.532 434.535 705.563 384.972 770.691C340.243 829.468 281.912 826.621 217.952 805.968C167.42 789.651 115.52 758.006 64.5829 743.629Z" fill="#7F30FF"/>
</g>
<g filter="url(#filter1_f)">
<path d="M239.966 447.804C107.722 410.462 98.3315 570.964 -7.65863 592.983C-384.186 671.206 -419.903 -420.271 -32.4801 -584.822C334.057 -740.503 711.575 154.598 711.575 154.598C711.575 154.598 784.531 391.744 711.575 487.657C645.734 574.216 559.873 570.023 465.724 539.608C391.341 515.579 314.945 468.975 239.966 447.804Z" fill="#7000FF"/>
</g>
<g filter="url(#filter2_f)">
<path d="M550.5 -740.218C303.905 -740.218 104 -499.881 104 -203.41C104 93.0609 303.905 333.398 550.5 333.398C797.095 333.398 997 93.0609 997 -203.41C997 -499.881 797.095 -740.218 550.5 -740.218Z" fill="#8902BE"/>
</g>
<g filter="url(#filter3_f)">
<path d="M1272.91 29.3436C1322.94 -150.703 1344.83 -287.905 1272.91 -456.847C1132.69 -786.224 630.518 -783.624 486.168 -456.847C372.077 -198.569 538.636 9.01738 659.87 262.529C713.363 374.389 727.235 467.606 820.991 530.108C1030.79 669.971 1196.78 303.289 1272.91 29.3436Z" fill="#FF4880"/>
</g>
<g filter="url(#filter4_f)">
<path d="M1353 -702.906C1156.39 -702.906 997 -511.337 997 -275.024C997 -38.7115 1156.39 152.858 1353 152.858C1549.61 152.858 1709 -38.7115 1709 -275.024C1709 -511.337 1549.61 -702.906 1353 -702.906Z" fill="#FF8000"/>
</g>
</g>
<defs>
<filter id="filter0_f" x="-807" y="-469.91" width="1714" height="1814.84" filterUnits="userSpaceOnUse" color-interpolation-filters="sRGB">
<feFlood flood-opacity="0" result="BackgroundImageFix"/>
<feBlend mode="normal" in="SourceGraphic" in2="BackgroundImageFix" result="shape"/>
<feGaussianBlur stdDeviation="250" result="effect1_foregroundBlur"/>
</filter>
<filter id="filter1_f" x="-807" y="-1103.01" width="2051" height="2200" filterUnits="userSpaceOnUse" color-interpolation-filters="sRGB">
<feFlood flood-opacity="0" result="BackgroundImageFix"/>
<feBlend mode="normal" in="SourceGraphic" in2="BackgroundImageFix" result="shape"/>
<feGaussianBlur stdDeviation="250" result="effect1_foregroundBlur"/>
</filter>
<filter id="filter2_f" x="-396" y="-1240.22" width="1893" height="2073.62" filterUnits="userSpaceOnUse" color-interpolation-filters="sRGB">
<feFlood flood-opacity="0" result="BackgroundImageFix"/>
<feBlend mode="normal" in="SourceGraphic" in2="BackgroundImageFix" result="shape"/>
<feGaussianBlur stdDeviation="250" result="effect1_foregroundBlur"/>
</filter>
<filter id="filter3_f" x="-52.0001" y="-1202.91" width="1871" height="2263.79" filterUnits="userSpaceOnUse" color-interpolation-filters="sRGB">
<feFlood flood-opacity="0" result="BackgroundImageFix"/>
<feBlend mode="normal" in="SourceGraphic" in2="BackgroundImageFix" result="shape"/>
<feGaussianBlur stdDeviation="250" result="effect1_foregroundBlur"/>
</filter>
<filter id="filter4_f" x="497" y="-1202.91" width="1712" height="1855.76" filterUnits="userSpaceOnUse" color-interpolation-filters="sRGB">
<feFlood flood-opacity="0" result="BackgroundImageFix"/>
<feBlend mode="normal" in="SourceGraphic" in2="BackgroundImageFix" result="shape"/>
<feGaussianBlur stdDeviation="250" result="effect1_foregroundBlur"/>
</filter>
<clipPath id="clip0">
<rect width="1440" height="1238" fill="white"/>
</clipPath>
</defs>
</svg>
