<svg width="186" height="34" viewBox="0 0 186 34" fill="none" xmlns="http://www.w3.org/2000/svg">
<path d="M1.72315 14.3577C1.62969 14.3413 1.53622 14.3249 1.44263 14.3647L1.40252 14.3805L1.38913 14.3965C-0.304886 13.3237 3.69674 15.8566 3.28324 15.5904L3.29658 15.5985C3.33662 15.6147 3.37666 15.6309 3.44341 15.6471C3.56355 15.6797 3.72377 15.7123 3.95077 15.7452C4.08434 15.7457 4.24463 15.7463 4.3782 15.7468C2.13137 17.0136 5.22075 15.2768 3.88337 16.0257L3.88331 16.0497L3.86985 16.0978C3.81589 16.3382 3.77546 16.4984 3.7091 16.3057C3.88017 17.4772 4.0677 17.2373 4.37638 16.5728L4.28352 16.2838L4.24376 16.1393L4.21721 16.067L4.20392 16.0349L4.20394 16.0269C4.3778 15.9313 4.53829 15.8356 4.69878 15.748C4.83235 15.7485 4.97928 15.749 5.11285 15.7495C4.59126 16.0443 4.37728 16.1638 4.33716 16.1877C4.44414 16.132 5.34021 15.6221 4.618 16.0364L4.61798 16.0444C4.67148 16.0126 4.87208 15.901 5.15294 15.7417C5.38001 15.7425 5.59375 15.7353 5.82082 15.7361C5.41961 15.9592 5.17886 16.1026 5.31261 16.0229C5.36611 15.9911 5.56671 15.8795 5.83419 15.7281C8.25184 15.7451 10.8162 15.8669 13.5007 15.9971C11.5772 16.006 9.64041 16.0149 7.71695 16.0158C7.72627 17.8442 7.7356 19.6727 7.74494 21.4931C7.74494 21.4931 7.74494 21.4931 7.73157 21.5011L7.69152 21.493C7.6381 21.4847 7.58469 21.4765 7.54464 21.4684C7.46453 21.452 7.39776 21.4437 7.34437 21.4275C7.07689 21.5789 6.83616 21.7143 6.64891 21.8259C6.56878 21.8176 6.4753 21.8092 6.35512 21.7927C6.24842 21.7202 6.14147 21.7599 6.0346 21.7675C6.00788 21.7674 5.99453 21.7674 5.96783 21.7592C5.83431 21.7347 5.68763 21.6219 5.50167 21.148C5.56805 21.3327 5.64766 21.5736 5.72731 21.7984C5.7406 21.8306 5.7539 21.8547 5.75383 21.8868L5.07176 22.2692L5.07175 22.2772L5.07173 22.2852L5.08503 22.3093L5.09828 22.3575L5.13816 22.4458C5.0704 22.8867 4.90902 23.3833 4.76121 23.7837C4.62686 24.1361 4.49265 24.4243 4.39883 24.5683C4.80015 24.2971 5.09462 24.0175 5.5101 23.3855C5.44372 23.2008 5.23035 23.0396 5.28513 22.4303C5.29862 22.3662 5.32545 22.3182 5.33889 22.2782C5.27202 22.318 5.56625 22.1507 5.80698 22.0153C5.82026 22.0474 5.83357 22.0715 5.8335 22.1036L5.51254 22.2788L5.51252 22.2868C5.52582 22.3109 5.5525 22.3271 5.5658 22.3512C5.60579 22.3914 5.63245 22.4156 5.67254 22.4077C5.65924 22.3836 5.65929 22.3596 5.64598 22.3354L5.60598 22.3032L5.606 22.2952C5.73975 22.2155 5.35189 22.4386 5.81998 22.1757L5.84659 22.2239L5.85988 22.256L5.8732 22.2721L5.87318 22.2802C6.55525 21.8977 4.89688 22.8299 6.26102 22.0651C6.28773 22.0652 6.30111 22.0572 6.32782 22.0573C6.38127 22.0495 6.43471 22.0416 6.48816 22.0338C6.47466 22.0979 6.44782 22.154 6.43434 22.2101L6.42088 22.2581L6.42085 22.2742L6.42083 22.2822C6.40745 22.2901 6.42083 22.2822 6.40745 22.2901C6.26052 22.2896 6.11359 22.2891 5.98002 22.2886C5.98878 24.3736 6.0109 26.4588 6.01966 28.5439C5.92628 28.4874 5.85959 28.447 5.83291 28.4309C5.84625 28.439 5.85959 28.447 5.87293 28.4551L5.88627 28.4632C5.89957 28.4873 5.92623 28.5114 5.93952 28.5436C5.93948 28.5596 5.92609 28.5756 5.92605 28.5916L7.00663 29.2131C7.00645 29.2933 7.00629 29.3655 7.0061 29.4537C7.07278 29.5021 7.12619 29.5103 7.11324 29.3258C7.11328 29.3097 7.11331 29.2937 7.1267 29.2777L8.54079 30.0929C8.09994 30.1153 7.68582 30.1379 7.31174 30.1686C7.44528 30.1851 7.56542 30.2176 7.65887 30.242C8.01959 30.2113 8.31354 30.1723 8.6075 30.1252L9.58136 30.6822C9.58117 30.7704 9.56763 30.8505 9.56744 30.9387C9.79449 30.9476 10.0216 30.9484 10.2486 30.9573C10.4354 31.0622 10.5421 31.1268 10.5955 31.151C10.5421 31.1188 10.4221 31.0542 10.2486 30.9573C12.6394 31.0223 15.0437 31.0712 17.4345 31.1122C17.3945 31.112 17.341 31.1118 17.2876 31.1116L17.3674 31.2643C18.5695 31.2767 19.4646 31.2159 18.837 31.1334C19.9056 31.1534 20.9741 31.1653 22.056 31.1774C20.0787 31.3946 21.5061 32.2259 23.4418 32.7062C23.5222 32.5942 23.5224 32.4899 25.887 32.3543C25.0592 32.2069 20.6384 31.9741 22.6425 31.7569C25.7817 31.6482 25.2068 31.8707 26.7292 32.0206C25.5945 31.7197 29.5753 31.6061 30.0436 31.247C31.6331 31.2529 33.2226 31.2587 34.7988 31.2565L35.3724 31.5794L36.268 31.3101L34.9457 31.2571C39.6341 31.2584 44.3226 31.2276 49.0112 31.1727C48.9176 31.2125 48.9442 31.2447 49.1712 31.2856L50.9345 31.2199C52.5635 31.4906 47.6343 31.6488 49.8781 31.7614C47.5267 31.9852 44.8812 32.3363 41.5288 32.1956L40.8885 31.7923C40.9684 31.9129 43.0786 32.0249 44.0139 31.892C42.6243 32.0954 38.8859 31.3679 37.3753 31.8996L39.7256 32.1729C37.3475 32.3807 34.408 32.8189 31.4429 32.6956C32.7911 33.0936 32.1242 32.65 34.2337 33.1149C32.405 32.5388 41.8206 33.1269 38.87 32.5146C41.046 33.0599 42.6096 32.7369 45.4537 33.1644C45.3605 33.0358 44.4391 32.9201 46.9368 32.9614C47.0438 32.9217 47.3111 32.8666 47.4714 32.8351C47.5516 32.8354 47.5783 32.8435 47.645 32.8437C47.5916 32.8355 47.5516 32.8354 47.5115 32.8272C47.6184 32.8035 47.6318 32.8036 47.4581 32.819C46.8705 32.7687 46.3764 32.7027 46.1896 32.6299C47.4058 32.3136 51.3596 32.2801 52.6824 32.1085C54.1516 32.1541 52.081 32.2667 52.8821 32.406L54.8596 32.1326C55.0727 32.4221 58.7991 32.5562 55.339 32.792L58.4647 32.7554C60.3077 32.8905 62.8455 32.916 64.3953 32.7613C65.8779 32.7908 68.0829 32.3499 66.8267 32.6099L71.7028 32.3152L71.7561 32.3875C76.5916 32.3252 81.6421 31.6542 87.1979 32.0436C88.8144 31.9213 90.4844 31.7911 93.1959 31.8012L93.743 32.0438C95.8137 31.8991 100.021 32.1311 100.89 31.8376C103.199 32.4637 111.001 31.7146 114.661 31.7442L114.769 31.4078C117.294 31.361 119.685 31.2094 122.798 31.0044L122.584 30.7149C125.257 30.412 129.53 30.7646 133.778 30.6681C133.497 30.7873 132.415 30.7753 131.641 30.7163C134.205 31.0064 136.877 30.8399 139.495 30.6491C142.113 30.4663 144.665 30.2833 146.989 30.5004C148.138 30.3843 148.966 30.4114 149.781 30.4786C149.674 30.4782 149.58 30.4859 149.5 30.4936C149.62 30.494 149.794 30.4947 149.968 30.4953C150.475 30.5453 150.996 30.5873 151.57 30.6376C151.089 30.5636 150.622 30.5138 150.221 30.4883C151.103 30.4675 152.452 30.4323 153.761 30.357L154.335 30.6719C154.442 30.6723 154.522 30.6645 154.642 30.665C155.938 30.782 155.684 30.5084 154.99 30.2733C155.658 30.2196 156.26 30.1577 156.727 30.0792C157.781 30.5884 160.187 29.8996 161.615 30.4421C162.431 30.1966 167.399 30.2791 168.709 29.8509C170.165 29.9284 171.621 29.998 172.93 29.8585L173.544 30.2777L176.777 29.8005C178.713 30.0883 179.515 30.2437 177.564 30.5171C179.902 30.3253 180.863 30.2968 181.718 30.2678C182.146 30.2534 182.56 30.2389 183.108 30.2088C183.175 30.2011 183.241 30.2013 183.321 30.1936L183.428 30.186L183.482 30.1781L183.508 30.1782L183.522 30.1783C182.038 30.9427 185.541 29.1352 185.18 29.3183L185.18 29.3103C185.154 29.222 185.127 29.1257 185.114 29.0214C185.048 28.8126 184.981 28.5718 184.902 28.2908L185.356 28.4128C185.384 27.6109 184.839 26.3178 185.255 25.8462C185.415 25.5581 185.55 25.1255 185.645 24.5886C185.699 24.3161 185.739 24.0276 185.78 23.7069C185.794 23.5466 185.821 23.3863 185.835 23.2099L185.848 23.0817L185.848 23.0656L185.848 23.0576C186.249 23.2997 182.42 20.9679 184.034 21.9523L184.021 21.9522L183.967 21.952L183.847 21.9435C183.687 21.9349 183.527 21.9343 183.366 21.9257C182.712 21.8993 182.017 21.8806 181.31 21.862C181.31 21.7257 181.323 21.5974 181.324 21.4691C181.338 21.0201 181.326 20.5709 181.301 19.825C181.488 19.8337 181.688 19.8425 181.888 19.8513C182.155 19.8603 182.423 19.8693 182.73 19.8704C182.877 19.871 183.024 19.8715 183.184 19.8721L183.424 19.873L183.545 19.8734L183.571 19.8735L183.585 19.8736C184.32 19.4593 184.641 19.284 184.762 19.2123L184.815 19.2366C184.815 19.2205 184.815 19.1965 184.828 19.1805C185.437 15.8547 184.498 17.7438 185.226 14.4024L184.665 14.5847C184.371 14.5115 184.265 14.2946 184.252 13.9898C184.252 13.8374 184.266 13.661 184.307 13.4687C184.334 13.3726 184.347 13.2684 184.374 13.1642C184.388 13.1082 184.401 13.0601 184.415 13.004L184.415 12.9799L184.415 12.9719L184.415 12.9639C185.202 13.3999 183.347 12.3665 183.534 12.4715L183.454 12.4632L183.307 12.4466C183.147 12.4299 182.973 12.4213 182.8 12.4046C182.881 11.9398 182.935 11.4668 182.869 11.0335C182.856 10.9533 182.843 10.8811 182.83 10.8008L182.508 11.5053C182.415 11.2564 182.442 10.9598 182.563 10.6314C182.617 10.4712 182.697 10.3031 182.791 10.1351C182.845 10.0471 182.885 9.96701 182.939 9.879L182.952 9.84697L182.952 9.83895C183.686 10.2507 183.072 9.90355 182.432 9.54031C183.983 8.67193 186.551 7.22188 184.612 8.31337L184.612 8.30536L184.599 8.25719L184.572 8.16888C184.546 8.04849 184.506 7.92003 184.48 7.7836C184.413 7.51872 184.347 7.23779 184.268 6.94078C183.99 5.76892 183.766 4.44489 184.142 3.48395C183.834 3.90784 183.539 4.32376 183.3 3.35253C183.274 3.03166 183.315 2.6549 183.383 2.2622L183.41 2.10993L183.424 2.06988L183.424 2.05384L183.424 2.04582C183.864 2.28803 179.608 -0.093424 181.409 0.915659L181.396 0.91561L181.262 0.907097C181.075 0.898386 180.888 0.881656 180.701 0.872946C180.327 0.847505 179.94 0.830035 179.566 0.804595C178.03 0.710704 176.467 0.640773 175.225 0.756472C174.838 0.795137 174.49 0.84197 174.169 0.920978C173.836 0.879647 173.702 0.831038 173.689 0.790892C172.259 0.889861 169.561 0.992159 167.691 1.17771C166.889 1.24692 166.248 1.33277 165.887 1.42767C164.913 0.902804 161.76 1.0756 158.861 1.28943C155.962 1.51127 153.303 1.74203 153.278 1.23671C151.194 1.31722 149.123 1.37373 147.053 1.47835L147.2 1.36662C143.206 1.44809 141.829 1.73972 140.466 2.0314C139.531 1.99587 140.2 1.87804 140.266 1.82216C134.429 1.84068 133.855 1.92677 129.058 2.63079L128.498 2.32398C127.201 2.56779 120.029 2.20446 114.404 2.87334C114.458 2.83344 114.565 2.76167 115.006 2.69112C108.673 3.39748 99.5382 2.58584 97.4115 3.90118L93.2429 4.41505C98.7065 4.21872 92.5204 4.97374 94.8043 5.05436C92.6667 5.23892 89.1944 4.99352 91.8262 4.78673L92.2536 4.82038C93.1099 4.14992 85.441 4.96361 85.5088 4.53081C74.7815 5.11668 64.2822 5.32648 54.2366 5.70636L55.4645 6.13592L51.9513 6.25927C51.0164 6.18364 50.6697 5.93376 53.1677 5.84676C51.8191 5.63327 49.0127 6.24841 48.9457 6.35241C44.0168 6.3342 50.7904 5.71768 49.2809 5.76021L47.2503 5.873L47.7178 5.91483C46.0876 6.17344 45.9669 6.38952 42.9613 6.47464C41.0513 6.44353 41.9467 6.21427 41.1987 6.21953C41.1988 6.18745 40.945 6.17849 40.0499 6.24736L35.6284 6.32725L37.4309 6.66271C35.4936 6.90415 33.2766 6.75963 35.3595 7.13622C32.3019 6.58761 18.8362 7.26761 16.9933 7.06032C14.2009 7.37879 11.4894 7.38481 8.13672 7.37242C8.55072 7.40602 8.88437 7.53557 8.76391 7.64739C8.68364 7.70323 8.50989 7.75071 8.16251 7.78952C8.069 7.79719 7.97548 7.80487 7.8686 7.81249C7.81517 7.81229 7.76173 7.82012 7.69494 7.81987L7.66823 7.81977C7.60135 7.85962 7.54785 7.8915 7.48099 7.92333C7.41421 7.92308 7.34742 7.92284 7.28065 7.91457C7.13372 7.91403 6.9601 7.90537 6.78647 7.89671C7.36177 7.4738 6.0397 7.33259 4.30353 7.20588L4.14326 7.19727L4.10319 7.19712L4.07647 7.19702C3.22065 7.6269 5.98868 6.24176 2.15089 8.16025L2.15087 8.16827L2.13741 8.21634L2.09691 8.40865C2.06992 8.53686 2.04292 8.66508 2.0159 8.80131C1.96189 9.06575 1.90788 9.33019 1.82717 9.58651C1.67913 10.0912 1.47773 10.5636 1.1698 10.8832C2.02721 9.7316 0.932494 15.5256 2.16537 13.7097C2.04371 14.3669 1.89674 14.3824 1.72315 14.3577ZM184.708 19.2442L184.708 19.2041L184.748 19.2203C184.641 19.276 184.494 19.3637 184.708 19.2442ZM50.1954 15.0741C50.556 15.0755 50.9301 15.0688 51.2907 15.0702C50.9033 15.0848 50.5293 15.0994 50.1419 15.114C50.1553 15.098 50.1687 15.0821 50.1954 15.0741ZM181.455 10.2745C181.642 10.3794 181.615 10.3633 181.455 10.2745V10.2745ZM181.437 6.22461C181.732 6.05729 182.013 5.89794 181.437 6.22461V6.22461ZM181.664 6.70661C181.69 6.69067 181.677 6.69062 181.664 6.70661V6.70661ZM5.86399 8.27021C5.87735 8.27026 5.87735 8.27026 5.86399 8.27021V8.27021ZM9.38443 29.1257C9.43786 29.1259 9.49129 29.1261 9.54472 29.1263L9.43818 28.9815L9.55836 28.998L9.61177 29.0062C9.61159 29.0864 9.59804 29.1746 9.59786 29.2548C9.54452 29.2145 9.46447 29.1741 9.38443 29.1257C9.03716 29.1164 8.75666 29.1153 8.54292 29.1226L8.62346 28.9464L8.7174 28.7463C8.57066 28.6575 8.45059 28.5929 8.37054 28.5525C8.51747 28.5531 8.6644 28.5536 8.79797 28.5541L8.75763 28.6743L8.73076 28.7463C8.93087 28.8594 9.17098 29.0046 9.38443 29.1257ZM8.33046 28.5524L8.34352 28.6888L8.35628 28.9615L8.36924 29.138C8.31582 29.1378 8.27573 29.1456 8.2223 29.1454C7.86211 28.9356 7.50191 28.7338 7.20844 28.5563C7.5691 28.5496 7.95646 28.551 8.33046 28.5524ZM9.4909 29.3025L9.61113 29.2949C9.59732 29.5034 9.5835 29.7118 9.56968 29.9203C9.36957 29.8073 8.99606 29.5813 8.5558 29.3391L9.4909 29.3025ZM9.62516 28.9902C9.37169 28.8449 8.99817 28.627 8.86477 28.5464C9.13192 28.5473 9.39906 28.5483 9.65287 28.5412C9.63917 28.6936 9.63886 28.8379 9.62516 28.9902ZM7.74491 21.5092C7.74434 21.7658 7.74378 22.0224 7.74321 22.279C7.28907 22.2774 6.82154 22.2837 6.3674 22.282C6.46099 22.2422 7.29018 21.7721 7.74491 21.5092ZM6.00627 28.5598C6.32684 28.561 6.64743 28.5542 6.98137 28.5554L6.98131 28.5795L6.98094 28.7479C6.98068 28.8682 6.98041 28.9885 6.96679 29.1087C6.55323 28.8746 6.20636 28.6809 6.00627 28.5598ZM8.70102 30.1176C8.7812 30.1018 8.87472 30.0941 8.96825 30.0784C8.86138 30.0861 8.76788 30.0857 8.661 30.0933C8.12738 29.7866 7.56709 29.4638 7.07349 29.1813C7.11404 28.9649 7.11444 28.7805 7.10144 28.62L7.0882 28.5638C7.0882 28.5638 7.08821 28.5638 7.07487 28.5558C7.07487 28.5558 7.07487 28.5558 7.08822 28.5558L7.0882 28.5638C7.39503 28.7414 7.75524 28.9432 8.11542 29.1531C7.5944 29.1912 7.74108 29.304 7.56728 29.3756L8.36879 29.3465L8.38182 29.4909L8.44895 29.3387L8.4623 29.3388C8.94256 29.6132 9.35611 29.8553 9.56954 29.9844C9.56952 29.9925 9.56951 30.0005 9.56951 30.0005C9.51606 30.0083 9.47599 30.0081 9.42254 30.016C9.26222 30.0314 9.11524 30.0549 8.96825 30.0784C9.15527 30.0711 9.35565 30.0638 9.55602 30.0566C9.54228 30.2329 9.52853 30.4093 9.52813 30.5938C9.27466 30.4485 8.99451 30.287 8.70102 30.1176ZM22.4567 31.1949C23.7523 31.2077 25.048 31.2205 26.3436 31.2333C25.355 31.3339 23.8589 31.3524 22.4567 31.1949ZM27.2519 31.2447C27.3053 31.2369 27.3454 31.237 27.3855 31.2372L27.2519 31.2447ZM60.8161 32.5315C60.8428 32.5236 60.8695 32.5237 60.8963 32.5158C62.6325 32.6104 62.0181 32.5761 60.8161 32.5315ZM73.0675 31.2857C65.8411 31.3392 67.0008 32.4101 60.9639 32.1151C58.5603 31.8015 60.8052 31.4088 60.2581 31.1662C63.3841 30.9853 65.0798 31.3043 67.2037 31.24L64.5859 31.126C65.5747 30.9854 67.6587 30.8487 68.794 30.9251C68.5536 30.8921 68.2063 30.8748 67.7522 30.8571C72.6813 30.747 77.5971 30.6288 82.5262 30.5027C81.1362 30.8905 78.5708 31.2579 75.4179 31.5109C71.5838 31.7373 73.7222 31.1839 73.0675 31.2857ZM98.9561 30.3469C99.0632 30.251 98.7028 30.1374 98.4224 30.0723C99.4644 30.044 100.506 30.0158 101.535 29.9875C100.706 30.1449 99.7844 30.2778 98.9561 30.3469ZM119.78 30.4078C119.393 30.3743 114.051 30.0659 112.795 29.8447C112.568 29.8038 112.435 29.7552 112.382 29.6988C113.637 29.6634 114.906 29.636 116.162 29.6005L116.281 30.1062L116.696 29.5945C117.925 29.5669 119.154 29.5314 120.383 29.5039C120.436 29.889 120.248 30.2411 119.78 30.4078ZM138.748 30.085L137.88 29.8813L134.474 30.1814C135.369 29.9201 136.946 29.533 138.724 29.1386C140.62 29.1135 142.517 29.0885 144.414 29.0634C142.783 29.4984 140.819 29.9162 138.748 30.085ZM168.669 29.8587C168.776 29.8271 168.856 29.7873 168.91 29.7474C168.95 29.8277 169.31 29.8611 168.669 29.8587ZM177.071 29.7454C177.312 29.602 177.206 29.3771 177.059 29.1439C177.954 29.1633 178.862 29.1827 179.757 29.202L177.071 29.7454ZM181.153 20.0651C181.06 19.9845 180.98 19.9121 180.927 19.8317C181.02 19.832 181.114 19.8404 181.207 19.8407L181.153 20.0651ZM40.7709 6.37833L41.4787 6.43709C39.9156 6.58368 40.3432 6.48101 40.7709 6.37833Z" fill="#2152FF"/>
</svg>
